<svg xmlns="http://www.w3.org/2000/svg" viewBox="0 0 13 17" shape-rendering="crispEdges"><rect x="3" y="0" width="7" height="1" fill="#5C7E56"/><rect x="1" y="1" width="2" height="1" fill="#5C7E56"/><rect x="3" y="1" width="7" height="1" fill="#8AAE7D"/><rect x="10" y="1" width="2" height="1" fill="#5C7E56"/><rect x="0" y="2" width="2" height="1" fill="#5C7E56"/><rect x="2" y="2" width="9" height="1" fill="#8AAE7D"/><rect x="11" y="2" width="2" height="1" fill="#5C7E56"/><rect x="0" y="3" width="3" height="1" fill="#5C7E56"/><rect x="3" y="3" width="7" height="1" fill="#8AAE7D"/><rect x="10" y="3" width="3" height="1" fill="#5C7E56"/><rect x="0" y="4" width="13" height="1" fill="#5C7E56"/><rect x="0" y="5" width="13" height="1" fill="#5C7E56"/><rect x="0" y="6" width="11" height="1" fill="#5C7E56"/><rect x="11" y="6" width="1" height="1" fill="#48633F"/><rect x="12" y="6" width="1" height="1" fill="#5C7E56"/><rect x="0" y="7" width="9" height="1" fill="#5C7E56"/><rect x="9" y="7" width="2" height="1" fill="#48633F"/><rect x="11" y="7" width="2" height="1" fill="#5C7E56"/><rect x="0" y="8" width="13" height="1" fill="#5C7E56"/><rect x="0" y="9" width="11" height="1" fill="#5C7E56"/><rect x="11" y="9" width="1" height="1" fill="#48633F"/><rect x="12" y="9" width="1" height="1" fill="#5C7E56"/><rect x="0" y="10" width="9" height="1" fill="#5C7E56"/><rect x="9" y="10" width="2" height="1" fill="#48633F"/><rect x="11" y="10" width="2" height="1" fill="#5C7E56"/><rect x="0" y="11" width="13" height="1" fill="#5C7E56"/><rect x="0" y="12" width="11" height="1" fill="#5C7E56"/><rect x="11" y="12" width="1" height="1" fill="#48633F"/><rect x="12" y="12" width="1" height="1" fill="#5C7E56"/><rect x="0" y="13" width="9" height="1" fill="#5C7E56"/><rect x="9" y="13" width="2" height="1" fill="#48633F"/><rect x="11" y="13" width="2" height="1" fill="#5C7E56"/><rect x="0" y="14" width="13" height="1" fill="#5C7E56"/><rect x="1" y="15" width="11" height="1" fill="#5C7E56"/><rect x="3" y="16" width="7" height="1" fill="#5C7E56"/></svg>
