<svg xmlns="http://www.w3.org/2000/svg" viewBox="0 0 200 200" shape-rendering="crispEdges">
<rect x="51" y="55" width="7" height="7" fill="#5c7e56"/>
<rect x="58" y="55" width="7" height="7" fill="#5c7e56"/>
<rect x="65" y="55" width="7" height="7" fill="#5c7e56"/>
<rect x="72" y="55" width="7" height="7" fill="#5c7e56"/>
<rect x="79" y="55" width="7" height="7" fill="#5c7e56"/>
<rect x="86" y="55" width="7" height="7" fill="#5c7e56"/>
<rect x="93" y="55" width="7" height="7" fill="#5c7e56"/>
<rect x="37" y="62" width="7" height="7" fill="#5c7e56"/>
<rect x="44" y="62" width="7" height="7" fill="#5c7e56"/>
<rect x="51" y="62" width="7" height="7" fill="#8aae7d"/>
<rect x="58" y="62" width="7" height="7" fill="#8aae7d"/>
<rect x="65" y="62" width="7" height="7" fill="#8aae7d"/>
<rect x="72" y="62" width="7" height="7" fill="#8aae7d"/>
<rect x="79" y="62" width="7" height="7" fill="#8aae7d"/>
<rect x="86" y="62" width="7" height="7" fill="#8aae7d"/>
<rect x="93" y="62" width="7" height="7" fill="#8aae7d"/>
<rect x="100" y="62" width="7" height="7" fill="#5c7e56"/>
<rect x="107" y="62" width="7" height="7" fill="#5c7e56"/>
<rect x="30" y="69" width="7" height="7" fill="#5c7e56"/>
<rect x="37" y="69" width="7" height="7" fill="#5c7e56"/>
<rect x="44" y="69" width="7" height="7" fill="#8aae7d"/>
<rect x="51" y="69" width="7" height="7" fill="#8aae7d"/>
<rect x="58" y="69" width="7" height="7" fill="#8aae7d"/>
<rect x="65" y="69" width="7" height="7" fill="#8aae7d"/>
<rect x="72" y="69" width="7" height="7" fill="#8aae7d"/>
<rect x="79" y="69" width="7" height="7" fill="#8aae7d"/>
<rect x="86" y="69" width="7" height="7" fill="#8aae7d"/>
<rect x="93" y="69" width="7" height="7" fill="#8aae7d"/>
<rect x="100" y="69" width="7" height="7" fill="#8aae7d"/>
<rect x="107" y="69" width="7" height="7" fill="#5c7e56"/>
<rect x="114" y="69" width="7" height="7" fill="#5c7e56"/>
<rect x="30" y="76" width="7" height="7" fill="#5c7e56"/>
<rect x="37" y="76" width="7" height="7" fill="#5c7e56"/>
<rect x="44" y="76" width="7" height="7" fill="#5c7e56"/>
<rect x="51" y="76" width="7" height="7" fill="#8aae7d"/>
<rect x="58" y="76" width="7" height="7" fill="#8aae7d"/>
<rect x="65" y="76" width="7" height="7" fill="#8aae7d"/>
<rect x="72" y="76" width="7" height="7" fill="#8aae7d"/>
<rect x="79" y="76" width="7" height="7" fill="#8aae7d"/>
<rect x="86" y="76" width="7" height="7" fill="#8aae7d"/>
<rect x="93" y="76" width="7" height="7" fill="#8aae7d"/>
<rect x="100" y="76" width="7" height="7" fill="#5c7e56"/>
<rect x="107" y="76" width="7" height="7" fill="#5c7e56"/>
<rect x="114" y="76" width="7" height="7" fill="#5c7e56"/>
<rect x="30" y="83" width="7" height="7" fill="#5c7e56"/>
<rect x="37" y="83" width="7" height="7" fill="#5c7e56"/>
<rect x="44" y="83" width="7" height="7" fill="#5c7e56"/>
<rect x="51" y="83" width="7" height="7" fill="#5c7e56"/>
<rect x="58" y="83" width="7" height="7" fill="#5c7e56"/>
<rect x="65" y="83" width="7" height="7" fill="#5c7e56"/>
<rect x="72" y="83" width="7" height="7" fill="#5c7e56"/>
<rect x="79" y="83" width="7" height="7" fill="#5c7e56"/>
<rect x="86" y="83" width="7" height="7" fill="#5c7e56"/>
<rect x="93" y="83" width="7" height="7" fill="#5c7e56"/>
<rect x="100" y="83" width="7" height="7" fill="#5c7e56"/>
<rect x="107" y="83" width="7" height="7" fill="#5c7e56"/>
<rect x="114" y="83" width="7" height="7" fill="#5c7e56"/>
<rect x="30" y="90" width="7" height="7" fill="#5c7e56"/>
<rect x="37" y="90" width="7" height="7" fill="#5c7e56"/>
<rect x="44" y="90" width="7" height="7" fill="#5c7e56"/>
<rect x="51" y="90" width="7" height="7" fill="#5c7e56"/>
<rect x="58" y="90" width="7" height="7" fill="#5c7e56"/>
<rect x="65" y="90" width="7" height="7" fill="#5c7e56"/>
<rect x="72" y="90" width="7" height="7" fill="#5c7e56"/>
<rect x="79" y="90" width="7" height="7" fill="#5c7e56"/>
<rect x="86" y="90" width="7" height="7" fill="#5c7e56"/>
<rect x="93" y="90" width="7" height="7" fill="#5c7e56"/>
<rect x="100" y="90" width="7" height="7" fill="#5c7e56"/>
<rect x="107" y="90" width="7" height="7" fill="#5c7e56"/>
<rect x="114" y="90" width="7" height="7" fill="#5c7e56"/>
<rect x="30" y="97" width="7" height="7" fill="#5c7e56"/>
<rect x="37" y="97" width="7" height="7" fill="#5c7e56"/>
<rect x="44" y="97" width="7" height="7" fill="#5c7e56"/>
<rect x="51" y="97" width="7" height="7" fill="#5c7e56"/>
<rect x="58" y="97" width="7" height="7" fill="#5c7e56"/>
<rect x="65" y="97" width="7" height="7" fill="#5c7e56"/>
<rect x="72" y="97" width="7" height="7" fill="#5c7e56"/>
<rect x="79" y="97" width="7" height="7" fill="#5c7e56"/>
<rect x="86" y="97" width="7" height="7" fill="#5c7e56"/>
<rect x="93" y="97" width="7" height="7" fill="#5c7e56"/>
<rect x="100" y="97" width="7" height="7" fill="#5c7e56"/>
<rect x="107" y="97" width="7" height="7" fill="#48633f"/>
<rect x="114" y="97" width="7" height="7" fill="#5c7e56"/>
<rect x="30" y="104" width="7" height="7" fill="#5c7e56"/>
<rect x="37" y="104" width="7" height="7" fill="#5c7e56"/>
<rect x="44" y="104" width="7" height="7" fill="#5c7e56"/>
<rect x="51" y="104" width="7" height="7" fill="#5c7e56"/>
<rect x="58" y="104" width="7" height="7" fill="#5c7e56"/>
<rect x="65" y="104" width="7" height="7" fill="#5c7e56"/>
<rect x="72" y="104" width="7" height="7" fill="#5c7e56"/>
<rect x="79" y="104" width="7" height="7" fill="#5c7e56"/>
<rect x="86" y="104" width="7" height="7" fill="#5c7e56"/>
<rect x="93" y="104" width="7" height="7" fill="#48633f"/>
<rect x="100" y="104" width="7" height="7" fill="#48633f"/>
<rect x="107" y="104" width="7" height="7" fill="#5c7e56"/>
<rect x="114" y="104" width="7" height="7" fill="#5c7e56"/>
<rect x="30" y="111" width="7" height="7" fill="#5c7e56"/>
<rect x="37" y="111" width="7" height="7" fill="#5c7e56"/>
<rect x="44" y="111" width="7" height="7" fill="#5c7e56"/>
<rect x="51" y="111" width="7" height="7" fill="#5c7e56"/>
<rect x="58" y="111" width="7" height="7" fill="#5c7e56"/>
<rect x="65" y="111" width="7" height="7" fill="#5c7e56"/>
<rect x="72" y="111" width="7" height="7" fill="#5c7e56"/>
<rect x="79" y="111" width="7" height="7" fill="#5c7e56"/>
<rect x="86" y="111" width="7" height="7" fill="#5c7e56"/>
<rect x="93" y="111" width="7" height="7" fill="#5c7e56"/>
<rect x="100" y="111" width="7" height="7" fill="#5c7e56"/>
<rect x="107" y="111" width="7" height="7" fill="#5c7e56"/>
<rect x="114" y="111" width="7" height="7" fill="#5c7e56"/>
<rect x="30" y="118" width="7" height="7" fill="#5c7e56"/>
<rect x="37" y="118" width="7" height="7" fill="#5c7e56"/>
<rect x="44" y="118" width="7" height="7" fill="#5c7e56"/>
<rect x="51" y="118" width="7" height="7" fill="#5c7e56"/>
<rect x="58" y="118" width="7" height="7" fill="#5c7e56"/>
<rect x="65" y="118" width="7" height="7" fill="#5c7e56"/>
<rect x="72" y="118" width="7" height="7" fill="#5c7e56"/>
<rect x="79" y="118" width="7" height="7" fill="#5c7e56"/>
<rect x="86" y="118" width="7" height="7" fill="#5c7e56"/>
<rect x="93" y="118" width="7" height="7" fill="#5c7e56"/>
<rect x="100" y="118" width="7" height="7" fill="#5c7e56"/>
<rect x="107" y="118" width="7" height="7" fill="#48633f"/>
<rect x="114" y="118" width="7" height="7" fill="#5c7e56"/>
<rect x="30" y="125" width="7" height="7" fill="#5c7e56"/>
<rect x="37" y="125" width="7" height="7" fill="#5c7e56"/>
<rect x="44" y="125" width="7" height="7" fill="#5c7e56"/>
<rect x="51" y="125" width="7" height="7" fill="#5c7e56"/>
<rect x="58" y="125" width="7" height="7" fill="#5c7e56"/>
<rect x="65" y="125" width="7" height="7" fill="#5c7e56"/>
<rect x="72" y="125" width="7" height="7" fill="#5c7e56"/>
<rect x="79" y="125" width="7" height="7" fill="#5c7e56"/>
<rect x="86" y="125" width="7" height="7" fill="#5c7e56"/>
<rect x="93" y="125" width="7" height="7" fill="#48633f"/>
<rect x="100" y="125" width="7" height="7" fill="#48633f"/>
<rect x="107" y="125" width="7" height="7" fill="#5c7e56"/>
<rect x="114" y="125" width="7" height="7" fill="#5c7e56"/>
<rect x="30" y="132" width="7" height="7" fill="#5c7e56"/>
<rect x="37" y="132" width="7" height="7" fill="#5c7e56"/>
<rect x="44" y="132" width="7" height="7" fill="#5c7e56"/>
<rect x="51" y="132" width="7" height="7" fill="#5c7e56"/>
<rect x="58" y="132" width="7" height="7" fill="#5c7e56"/>
<rect x="65" y="132" width="7" height="7" fill="#5c7e56"/>
<rect x="72" y="132" width="7" height="7" fill="#5c7e56"/>
<rect x="79" y="132" width="7" height="7" fill="#5c7e56"/>
<rect x="86" y="132" width="7" height="7" fill="#5c7e56"/>
<rect x="93" y="132" width="7" height="7" fill="#5c7e56"/>
<rect x="100" y="132" width="7" height="7" fill="#5c7e56"/>
<rect x="107" y="132" width="7" height="7" fill="#5c7e56"/>
<rect x="114" y="132" width="7" height="7" fill="#5c7e56"/>
<rect x="30" y="139" width="7" height="7" fill="#5c7e56"/>
<rect x="37" y="139" width="7" height="7" fill="#5c7e56"/>
<rect x="44" y="139" width="7" height="7" fill="#5c7e56"/>
<rect x="51" y="139" width="7" height="7" fill="#5c7e56"/>
<rect x="58" y="139" width="7" height="7" fill="#5c7e56"/>
<rect x="65" y="139" width="7" height="7" fill="#5c7e56"/>
<rect x="72" y="139" width="7" height="7" fill="#5c7e56"/>
<rect x="79" y="139" width="7" height="7" fill="#5c7e56"/>
<rect x="86" y="139" width="7" height="7" fill="#5c7e56"/>
<rect x="93" y="139" width="7" height="7" fill="#5c7e56"/>
<rect x="100" y="139" width="7" height="7" fill="#5c7e56"/>
<rect x="107" y="139" width="7" height="7" fill="#48633f"/>
<rect x="114" y="139" width="7" height="7" fill="#5c7e56"/>
<rect x="30" y="146" width="7" height="7" fill="#5c7e56"/>
<rect x="37" y="146" width="7" height="7" fill="#5c7e56"/>
<rect x="44" y="146" width="7" height="7" fill="#5c7e56"/>
<rect x="51" y="146" width="7" height="7" fill="#5c7e56"/>
<rect x="58" y="146" width="7" height="7" fill="#5c7e56"/>
<rect x="65" y="146" width="7" height="7" fill="#5c7e56"/>
<rect x="72" y="146" width="7" height="7" fill="#5c7e56"/>
<rect x="79" y="146" width="7" height="7" fill="#5c7e56"/>
<rect x="86" y="146" width="7" height="7" fill="#5c7e56"/>
<rect x="93" y="146" width="7" height="7" fill="#48633f"/>
<rect x="100" y="146" width="7" height="7" fill="#48633f"/>
<rect x="107" y="146" width="7" height="7" fill="#5c7e56"/>
<rect x="114" y="146" width="7" height="7" fill="#5c7e56"/>
<rect x="30" y="153" width="7" height="7" fill="#5c7e56"/>
<rect x="37" y="153" width="7" height="7" fill="#5c7e56"/>
<rect x="44" y="153" width="7" height="7" fill="#5c7e56"/>
<rect x="51" y="153" width="7" height="7" fill="#5c7e56"/>
<rect x="58" y="153" width="7" height="7" fill="#5c7e56"/>
<rect x="65" y="153" width="7" height="7" fill="#5c7e56"/>
<rect x="72" y="153" width="7" height="7" fill="#5c7e56"/>
<rect x="79" y="153" width="7" height="7" fill="#5c7e56"/>
<rect x="86" y="153" width="7" height="7" fill="#5c7e56"/>
<rect x="93" y="153" width="7" height="7" fill="#5c7e56"/>
<rect x="100" y="153" width="7" height="7" fill="#5c7e56"/>
<rect x="107" y="153" width="7" height="7" fill="#5c7e56"/>
<rect x="114" y="153" width="7" height="7" fill="#5c7e56"/>
<rect x="37" y="160" width="7" height="7" fill="#5c7e56"/>
<rect x="44" y="160" width="7" height="7" fill="#5c7e56"/>
<rect x="51" y="160" width="7" height="7" fill="#5c7e56"/>
<rect x="58" y="160" width="7" height="7" fill="#5c7e56"/>
<rect x="65" y="160" width="7" height="7" fill="#5c7e56"/>
<rect x="72" y="160" width="7" height="7" fill="#5c7e56"/>
<rect x="79" y="160" width="7" height="7" fill="#5c7e56"/>
<rect x="86" y="160" width="7" height="7" fill="#5c7e56"/>
<rect x="93" y="160" width="7" height="7" fill="#5c7e56"/>
<rect x="100" y="160" width="7" height="7" fill="#5c7e56"/>
<rect x="107" y="160" width="7" height="7" fill="#5c7e56"/>
<rect x="51" y="167" width="7" height="7" fill="#5c7e56"/>
<rect x="58" y="167" width="7" height="7" fill="#5c7e56"/>
<rect x="65" y="167" width="7" height="7" fill="#5c7e56"/>
<rect x="72" y="167" width="7" height="7" fill="#5c7e56"/>
<rect x="79" y="167" width="7" height="7" fill="#5c7e56"/>
<rect x="86" y="167" width="7" height="7" fill="#5c7e56"/>
<rect x="93" y="167" width="7" height="7" fill="#5c7e56"/>
<rect x="134" y="30" width="8" height="8" fill="#d4a857"/>
<rect x="142" y="30" width="8" height="8" fill="#d4a857"/>
<rect x="150" y="30" width="8" height="8" fill="#d4a857"/>
<rect x="126" y="38" width="8" height="8" fill="#d4a857"/>
<rect x="134" y="38" width="8" height="8" fill="#d4a857"/>
<rect x="142" y="38" width="8" height="8" fill="#d4a857"/>
<rect x="150" y="38" width="8" height="8" fill="#d4a857"/>
<rect x="158" y="38" width="8" height="8" fill="#d4a857"/>
<rect x="118" y="46" width="8" height="8" fill="#d4a857"/>
<rect x="126" y="46" width="8" height="8" fill="#d4a857"/>
<rect x="134" y="46" width="8" height="8" fill="#d4a857"/>
<rect x="142" y="46" width="8" height="8" fill="#d4a857"/>
<rect x="150" y="46" width="8" height="8" fill="#d4a857"/>
<rect x="158" y="46" width="8" height="8" fill="#d4a857"/>
<rect x="166" y="46" width="8" height="8" fill="#d4a857"/>
<rect x="118" y="54" width="8" height="8" fill="#d4a857"/>
<rect x="126" y="54" width="8" height="8" fill="#d4a857"/>
<rect x="134" y="54" width="8" height="8" fill="#d4a857"/>
<rect x="142" y="54" width="8" height="8" fill="#d4a857"/>
<rect x="150" y="54" width="8" height="8" fill="#d4a857"/>
<rect x="158" y="54" width="8" height="8" fill="#d4a857"/>
<rect x="166" y="54" width="8" height="8" fill="#d4a857"/>
<rect x="118" y="62" width="8" height="8" fill="#d4a857"/>
<rect x="126" y="62" width="8" height="8" fill="#d4a857"/>
<rect x="134" y="62" width="8" height="8" fill="#d4a857"/>
<rect x="142" y="62" width="8" height="8" fill="#d4a857"/>
<rect x="150" y="62" width="8" height="8" fill="#d4a857"/>
<rect x="158" y="62" width="8" height="8" fill="#d4a857"/>
<rect x="166" y="62" width="8" height="8" fill="#d4a857"/>
<rect x="126" y="70" width="8" height="8" fill="#d4a857"/>
<rect x="134" y="70" width="8" height="8" fill="#d4a857"/>
<rect x="142" y="70" width="8" height="8" fill="#d4a857"/>
<rect x="150" y="70" width="8" height="8" fill="#d4a857"/>
<rect x="158" y="70" width="8" height="8" fill="#d4a857"/>
<rect x="134" y="78" width="8" height="8" fill="#d4a857"/>
<rect x="150" y="78" width="8" height="8" fill="#d4a857"/>
</svg>
