<svg xmlns="http://www.w3.org/2000/svg" viewBox="0 0 200 200" shape-rendering="crispEdges">
<rect x="81" y="60" width="7" height="7" fill="#1f4b7a"/>
<rect x="88" y="60" width="7" height="7" fill="#1f4b7a"/>
<rect x="95" y="60" width="7" height="7" fill="#1f4b7a"/>
<rect x="102" y="60" width="7" height="7" fill="#1f4b7a"/>
<rect x="109" y="60" width="7" height="7" fill="#1f4b7a"/>
<rect x="116" y="60" width="7" height="7" fill="#1f4b7a"/>
<rect x="123" y="60" width="7" height="7" fill="#1f4b7a"/>
<rect x="67" y="67" width="7" height="7" fill="#1f4b7a"/>
<rect x="74" y="67" width="7" height="7" fill="#1f4b7a"/>
<rect x="81" y="67" width="7" height="7" fill="#4e7ba8"/>
<rect x="88" y="67" width="7" height="7" fill="#4e7ba8"/>
<rect x="95" y="67" width="7" height="7" fill="#4e7ba8"/>
<rect x="102" y="67" width="7" height="7" fill="#4e7ba8"/>
<rect x="109" y="67" width="7" height="7" fill="#4e7ba8"/>
<rect x="116" y="67" width="7" height="7" fill="#4e7ba8"/>
<rect x="123" y="67" width="7" height="7" fill="#4e7ba8"/>
<rect x="130" y="67" width="7" height="7" fill="#1f4b7a"/>
<rect x="137" y="67" width="7" height="7" fill="#1f4b7a"/>
<rect x="60" y="74" width="7" height="7" fill="#1f4b7a"/>
<rect x="67" y="74" width="7" height="7" fill="#1f4b7a"/>
<rect x="74" y="74" width="7" height="7" fill="#4e7ba8"/>
<rect x="81" y="74" width="7" height="7" fill="#4e7ba8"/>
<rect x="88" y="74" width="7" height="7" fill="#4e7ba8"/>
<rect x="95" y="74" width="7" height="7" fill="#4e7ba8"/>
<rect x="102" y="74" width="7" height="7" fill="#4e7ba8"/>
<rect x="109" y="74" width="7" height="7" fill="#4e7ba8"/>
<rect x="116" y="74" width="7" height="7" fill="#4e7ba8"/>
<rect x="123" y="74" width="7" height="7" fill="#4e7ba8"/>
<rect x="130" y="74" width="7" height="7" fill="#4e7ba8"/>
<rect x="137" y="74" width="7" height="7" fill="#1f4b7a"/>
<rect x="144" y="74" width="7" height="7" fill="#1f4b7a"/>
<rect x="60" y="81" width="7" height="7" fill="#1f4b7a"/>
<rect x="67" y="81" width="7" height="7" fill="#1f4b7a"/>
<rect x="74" y="81" width="7" height="7" fill="#1f4b7a"/>
<rect x="81" y="81" width="7" height="7" fill="#4e7ba8"/>
<rect x="88" y="81" width="7" height="7" fill="#4e7ba8"/>
<rect x="95" y="81" width="7" height="7" fill="#4e7ba8"/>
<rect x="102" y="81" width="7" height="7" fill="#4e7ba8"/>
<rect x="109" y="81" width="7" height="7" fill="#4e7ba8"/>
<rect x="116" y="81" width="7" height="7" fill="#4e7ba8"/>
<rect x="123" y="81" width="7" height="7" fill="#4e7ba8"/>
<rect x="130" y="81" width="7" height="7" fill="#1f4b7a"/>
<rect x="137" y="81" width="7" height="7" fill="#1f4b7a"/>
<rect x="144" y="81" width="7" height="7" fill="#1f4b7a"/>
<rect x="60" y="88" width="7" height="7" fill="#1f4b7a"/>
<rect x="67" y="88" width="7" height="7" fill="#1f4b7a"/>
<rect x="74" y="88" width="7" height="7" fill="#1f4b7a"/>
<rect x="81" y="88" width="7" height="7" fill="#1f4b7a"/>
<rect x="88" y="88" width="7" height="7" fill="#1f4b7a"/>
<rect x="95" y="88" width="7" height="7" fill="#1f4b7a"/>
<rect x="102" y="88" width="7" height="7" fill="#1f4b7a"/>
<rect x="109" y="88" width="7" height="7" fill="#1f4b7a"/>
<rect x="116" y="88" width="7" height="7" fill="#1f4b7a"/>
<rect x="123" y="88" width="7" height="7" fill="#1f4b7a"/>
<rect x="130" y="88" width="7" height="7" fill="#1f4b7a"/>
<rect x="137" y="88" width="7" height="7" fill="#1f4b7a"/>
<rect x="144" y="88" width="7" height="7" fill="#1f4b7a"/>
<rect x="60" y="95" width="7" height="7" fill="#1f4b7a"/>
<rect x="67" y="95" width="7" height="7" fill="#1f4b7a"/>
<rect x="74" y="95" width="7" height="7" fill="#1f4b7a"/>
<rect x="81" y="95" width="7" height="7" fill="#1f4b7a"/>
<rect x="88" y="95" width="7" height="7" fill="#1f4b7a"/>
<rect x="95" y="95" width="7" height="7" fill="#1f4b7a"/>
<rect x="102" y="95" width="7" height="7" fill="#1f4b7a"/>
<rect x="109" y="95" width="7" height="7" fill="#1f4b7a"/>
<rect x="116" y="95" width="7" height="7" fill="#1f4b7a"/>
<rect x="123" y="95" width="7" height="7" fill="#1f4b7a"/>
<rect x="130" y="95" width="7" height="7" fill="#1f4b7a"/>
<rect x="137" y="95" width="7" height="7" fill="#1f4b7a"/>
<rect x="144" y="95" width="7" height="7" fill="#1f4b7a"/>
<rect x="60" y="102" width="7" height="7" fill="#1f4b7a"/>
<rect x="67" y="102" width="7" height="7" fill="#1f4b7a"/>
<rect x="74" y="102" width="7" height="7" fill="#1f4b7a"/>
<rect x="81" y="102" width="7" height="7" fill="#1f4b7a"/>
<rect x="88" y="102" width="7" height="7" fill="#1f4b7a"/>
<rect x="95" y="102" width="7" height="7" fill="#1f4b7a"/>
<rect x="102" y="102" width="7" height="7" fill="#1f4b7a"/>
<rect x="109" y="102" width="7" height="7" fill="#1f4b7a"/>
<rect x="116" y="102" width="7" height="7" fill="#1f4b7a"/>
<rect x="123" y="102" width="7" height="7" fill="#1f4b7a"/>
<rect x="130" y="102" width="7" height="7" fill="#1f4b7a"/>
<rect x="137" y="102" width="7" height="7" fill="#163a61"/>
<rect x="144" y="102" width="7" height="7" fill="#1f4b7a"/>
<rect x="60" y="109" width="7" height="7" fill="#1f4b7a"/>
<rect x="67" y="109" width="7" height="7" fill="#1f4b7a"/>
<rect x="74" y="109" width="7" height="7" fill="#1f4b7a"/>
<rect x="81" y="109" width="7" height="7" fill="#1f4b7a"/>
<rect x="88" y="109" width="7" height="7" fill="#1f4b7a"/>
<rect x="95" y="109" width="7" height="7" fill="#1f4b7a"/>
<rect x="102" y="109" width="7" height="7" fill="#1f4b7a"/>
<rect x="109" y="109" width="7" height="7" fill="#1f4b7a"/>
<rect x="116" y="109" width="7" height="7" fill="#1f4b7a"/>
<rect x="123" y="109" width="7" height="7" fill="#163a61"/>
<rect x="130" y="109" width="7" height="7" fill="#163a61"/>
<rect x="137" y="109" width="7" height="7" fill="#1f4b7a"/>
<rect x="144" y="109" width="7" height="7" fill="#1f4b7a"/>
<rect x="60" y="116" width="7" height="7" fill="#1f4b7a"/>
<rect x="67" y="116" width="7" height="7" fill="#1f4b7a"/>
<rect x="74" y="116" width="7" height="7" fill="#1f4b7a"/>
<rect x="81" y="116" width="7" height="7" fill="#1f4b7a"/>
<rect x="88" y="116" width="7" height="7" fill="#1f4b7a"/>
<rect x="95" y="116" width="7" height="7" fill="#1f4b7a"/>
<rect x="102" y="116" width="7" height="7" fill="#1f4b7a"/>
<rect x="109" y="116" width="7" height="7" fill="#1f4b7a"/>
<rect x="116" y="116" width="7" height="7" fill="#1f4b7a"/>
<rect x="123" y="116" width="7" height="7" fill="#1f4b7a"/>
<rect x="130" y="116" width="7" height="7" fill="#1f4b7a"/>
<rect x="137" y="116" width="7" height="7" fill="#1f4b7a"/>
<rect x="144" y="116" width="7" height="7" fill="#1f4b7a"/>
<rect x="60" y="123" width="7" height="7" fill="#1f4b7a"/>
<rect x="67" y="123" width="7" height="7" fill="#1f4b7a"/>
<rect x="74" y="123" width="7" height="7" fill="#1f4b7a"/>
<rect x="81" y="123" width="7" height="7" fill="#1f4b7a"/>
<rect x="88" y="123" width="7" height="7" fill="#1f4b7a"/>
<rect x="95" y="123" width="7" height="7" fill="#1f4b7a"/>
<rect x="102" y="123" width="7" height="7" fill="#1f4b7a"/>
<rect x="109" y="123" width="7" height="7" fill="#1f4b7a"/>
<rect x="116" y="123" width="7" height="7" fill="#1f4b7a"/>
<rect x="123" y="123" width="7" height="7" fill="#1f4b7a"/>
<rect x="130" y="123" width="7" height="7" fill="#1f4b7a"/>
<rect x="137" y="123" width="7" height="7" fill="#163a61"/>
<rect x="144" y="123" width="7" height="7" fill="#1f4b7a"/>
<rect x="60" y="130" width="7" height="7" fill="#1f4b7a"/>
<rect x="67" y="130" width="7" height="7" fill="#1f4b7a"/>
<rect x="74" y="130" width="7" height="7" fill="#1f4b7a"/>
<rect x="81" y="130" width="7" height="7" fill="#1f4b7a"/>
<rect x="88" y="130" width="7" height="7" fill="#1f4b7a"/>
<rect x="95" y="130" width="7" height="7" fill="#1f4b7a"/>
<rect x="102" y="130" width="7" height="7" fill="#1f4b7a"/>
<rect x="109" y="130" width="7" height="7" fill="#1f4b7a"/>
<rect x="116" y="130" width="7" height="7" fill="#1f4b7a"/>
<rect x="123" y="130" width="7" height="7" fill="#163a61"/>
<rect x="130" y="130" width="7" height="7" fill="#163a61"/>
<rect x="137" y="130" width="7" height="7" fill="#1f4b7a"/>
<rect x="144" y="130" width="7" height="7" fill="#1f4b7a"/>
<rect x="60" y="137" width="7" height="7" fill="#1f4b7a"/>
<rect x="67" y="137" width="7" height="7" fill="#1f4b7a"/>
<rect x="74" y="137" width="7" height="7" fill="#1f4b7a"/>
<rect x="81" y="137" width="7" height="7" fill="#1f4b7a"/>
<rect x="88" y="137" width="7" height="7" fill="#1f4b7a"/>
<rect x="95" y="137" width="7" height="7" fill="#1f4b7a"/>
<rect x="102" y="137" width="7" height="7" fill="#1f4b7a"/>
<rect x="109" y="137" width="7" height="7" fill="#1f4b7a"/>
<rect x="116" y="137" width="7" height="7" fill="#1f4b7a"/>
<rect x="123" y="137" width="7" height="7" fill="#1f4b7a"/>
<rect x="130" y="137" width="7" height="7" fill="#1f4b7a"/>
<rect x="137" y="137" width="7" height="7" fill="#1f4b7a"/>
<rect x="144" y="137" width="7" height="7" fill="#1f4b7a"/>
<rect x="60" y="144" width="7" height="7" fill="#1f4b7a"/>
<rect x="67" y="144" width="7" height="7" fill="#1f4b7a"/>
<rect x="74" y="144" width="7" height="7" fill="#1f4b7a"/>
<rect x="81" y="144" width="7" height="7" fill="#1f4b7a"/>
<rect x="88" y="144" width="7" height="7" fill="#1f4b7a"/>
<rect x="95" y="144" width="7" height="7" fill="#1f4b7a"/>
<rect x="102" y="144" width="7" height="7" fill="#1f4b7a"/>
<rect x="109" y="144" width="7" height="7" fill="#1f4b7a"/>
<rect x="116" y="144" width="7" height="7" fill="#1f4b7a"/>
<rect x="123" y="144" width="7" height="7" fill="#1f4b7a"/>
<rect x="130" y="144" width="7" height="7" fill="#1f4b7a"/>
<rect x="137" y="144" width="7" height="7" fill="#163a61"/>
<rect x="144" y="144" width="7" height="7" fill="#1f4b7a"/>
<rect x="60" y="151" width="7" height="7" fill="#1f4b7a"/>
<rect x="67" y="151" width="7" height="7" fill="#1f4b7a"/>
<rect x="74" y="151" width="7" height="7" fill="#1f4b7a"/>
<rect x="81" y="151" width="7" height="7" fill="#1f4b7a"/>
<rect x="88" y="151" width="7" height="7" fill="#1f4b7a"/>
<rect x="95" y="151" width="7" height="7" fill="#1f4b7a"/>
<rect x="102" y="151" width="7" height="7" fill="#1f4b7a"/>
<rect x="109" y="151" width="7" height="7" fill="#1f4b7a"/>
<rect x="116" y="151" width="7" height="7" fill="#1f4b7a"/>
<rect x="123" y="151" width="7" height="7" fill="#163a61"/>
<rect x="130" y="151" width="7" height="7" fill="#163a61"/>
<rect x="137" y="151" width="7" height="7" fill="#1f4b7a"/>
<rect x="144" y="151" width="7" height="7" fill="#1f4b7a"/>
<rect x="60" y="158" width="7" height="7" fill="#1f4b7a"/>
<rect x="67" y="158" width="7" height="7" fill="#1f4b7a"/>
<rect x="74" y="158" width="7" height="7" fill="#1f4b7a"/>
<rect x="81" y="158" width="7" height="7" fill="#1f4b7a"/>
<rect x="88" y="158" width="7" height="7" fill="#1f4b7a"/>
<rect x="95" y="158" width="7" height="7" fill="#1f4b7a"/>
<rect x="102" y="158" width="7" height="7" fill="#1f4b7a"/>
<rect x="109" y="158" width="7" height="7" fill="#1f4b7a"/>
<rect x="116" y="158" width="7" height="7" fill="#1f4b7a"/>
<rect x="123" y="158" width="7" height="7" fill="#1f4b7a"/>
<rect x="130" y="158" width="7" height="7" fill="#1f4b7a"/>
<rect x="137" y="158" width="7" height="7" fill="#1f4b7a"/>
<rect x="144" y="158" width="7" height="7" fill="#1f4b7a"/>
<rect x="67" y="165" width="7" height="7" fill="#1f4b7a"/>
<rect x="74" y="165" width="7" height="7" fill="#1f4b7a"/>
<rect x="81" y="165" width="7" height="7" fill="#1f4b7a"/>
<rect x="88" y="165" width="7" height="7" fill="#1f4b7a"/>
<rect x="95" y="165" width="7" height="7" fill="#1f4b7a"/>
<rect x="102" y="165" width="7" height="7" fill="#1f4b7a"/>
<rect x="109" y="165" width="7" height="7" fill="#1f4b7a"/>
<rect x="116" y="165" width="7" height="7" fill="#1f4b7a"/>
<rect x="123" y="165" width="7" height="7" fill="#1f4b7a"/>
<rect x="130" y="165" width="7" height="7" fill="#1f4b7a"/>
<rect x="137" y="165" width="7" height="7" fill="#1f4b7a"/>
<rect x="81" y="172" width="7" height="7" fill="#1f4b7a"/>
<rect x="88" y="172" width="7" height="7" fill="#1f4b7a"/>
<rect x="95" y="172" width="7" height="7" fill="#1f4b7a"/>
<rect x="102" y="172" width="7" height="7" fill="#1f4b7a"/>
<rect x="109" y="172" width="7" height="7" fill="#1f4b7a"/>
<rect x="116" y="172" width="7" height="7" fill="#1f4b7a"/>
<rect x="123" y="172" width="7" height="7" fill="#1f4b7a"/>
<rect x="28" y="20" width="8" height="8" fill="#a8502f"/>
<rect x="36" y="20" width="8" height="8" fill="#a8502f"/>
<rect x="44" y="20" width="8" height="8" fill="#a8502f"/>
<rect x="52" y="20" width="8" height="8" fill="#a8502f"/>
<rect x="60" y="20" width="8" height="8" fill="#a8502f"/>
<rect x="20" y="28" width="8" height="8" fill="#a8502f"/>
<rect x="28" y="28" width="8" height="8" fill="#a8502f"/>
<rect x="36" y="28" width="8" height="8" fill="#a8502f"/>
<rect x="44" y="28" width="8" height="8" fill="#a8502f"/>
<rect x="52" y="28" width="8" height="8" fill="#a8502f"/>
<rect x="60" y="28" width="8" height="8" fill="#a8502f"/>
<rect x="68" y="28" width="8" height="8" fill="#a8502f"/>
<rect x="20" y="36" width="8" height="8" fill="#a8502f"/>
<rect x="28" y="36" width="8" height="8" fill="#a8502f"/>
<rect x="36" y="36" width="8" height="8" fill="#a8502f"/>
<rect x="44" y="36" width="8" height="8" fill="#a8502f"/>
<rect x="52" y="36" width="8" height="8" fill="#a8502f"/>
<rect x="60" y="36" width="8" height="8" fill="#a8502f"/>
<rect x="68" y="36" width="8" height="8" fill="#a8502f"/>
<rect x="20" y="44" width="8" height="8" fill="#a8502f"/>
<rect x="28" y="44" width="8" height="8" fill="#a8502f"/>
<rect x="36" y="44" width="8" height="8" fill="#a8502f"/>
<rect x="44" y="44" width="8" height="8" fill="#a8502f"/>
<rect x="52" y="44" width="8" height="8" fill="#a8502f"/>
<rect x="60" y="44" width="8" height="8" fill="#a8502f"/>
<rect x="68" y="44" width="8" height="8" fill="#a8502f"/>
<rect x="28" y="52" width="8" height="8" fill="#a8502f"/>
<rect x="36" y="52" width="8" height="8" fill="#a8502f"/>
<rect x="44" y="52" width="8" height="8" fill="#a8502f"/>
<rect x="52" y="52" width="8" height="8" fill="#a8502f"/>
<rect x="60" y="52" width="8" height="8" fill="#a8502f"/>
<rect x="36" y="60" width="8" height="8" fill="#a8502f"/>
<rect x="44" y="60" width="8" height="8" fill="#a8502f"/>
<rect x="52" y="60" width="8" height="8" fill="#a8502f"/>
<rect x="44" y="68" width="8" height="8" fill="#a8502f"/>
<rect x="32" y="32" width="4" height="4" fill="#ffffff"/>
<rect x="56" y="32" width="4" height="4" fill="#ffffff"/>
<rect x="36" y="36" width="4" height="4" fill="#ffffff"/>
<rect x="52" y="36" width="4" height="4" fill="#ffffff"/>
<rect x="40" y="40" width="4" height="4" fill="#ffffff"/>
<rect x="48" y="40" width="4" height="4" fill="#ffffff"/>
<rect x="44" y="44" width="4" height="4" fill="#ffffff"/>
<rect x="40" y="48" width="4" height="4" fill="#ffffff"/>
<rect x="48" y="48" width="4" height="4" fill="#ffffff"/>
<rect x="36" y="52" width="4" height="4" fill="#ffffff"/>
<rect x="52" y="52" width="4" height="4" fill="#ffffff"/>
<rect x="32" y="56" width="4" height="4" fill="#ffffff"/>
<rect x="56" y="56" width="4" height="4" fill="#ffffff"/>
</svg>
