<svg xmlns="http://www.w3.org/2000/svg" viewBox="0 0 200 200" shape-rendering="crispEdges">
<rect x="33" y="70" width="6" height="6" fill="#b7a488"/>
<rect x="39" y="70" width="6" height="6" fill="#b7a488"/>
<rect x="45" y="70" width="6" height="6" fill="#b7a488"/>
<rect x="51" y="70" width="6" height="6" fill="#b7a488"/>
<rect x="57" y="70" width="6" height="6" fill="#b7a488"/>
<rect x="63" y="70" width="6" height="6" fill="#b7a488"/>
<rect x="69" y="70" width="6" height="6" fill="#b7a488"/>
<rect x="21" y="76" width="6" height="6" fill="#b7a488"/>
<rect x="27" y="76" width="6" height="6" fill="#b7a488"/>
<rect x="33" y="76" width="6" height="6" fill="#d4a857"/>
<rect x="39" y="76" width="6" height="6" fill="#d4a857"/>
<rect x="45" y="76" width="6" height="6" fill="#d4a857"/>
<rect x="51" y="76" width="6" height="6" fill="#d4a857"/>
<rect x="57" y="76" width="6" height="6" fill="#d4a857"/>
<rect x="63" y="76" width="6" height="6" fill="#d4a857"/>
<rect x="69" y="76" width="6" height="6" fill="#d4a857"/>
<rect x="75" y="76" width="6" height="6" fill="#b7a488"/>
<rect x="81" y="76" width="6" height="6" fill="#b7a488"/>
<rect x="15" y="82" width="6" height="6" fill="#b7a488"/>
<rect x="21" y="82" width="6" height="6" fill="#b7a488"/>
<rect x="27" y="82" width="6" height="6" fill="#d4a857"/>
<rect x="33" y="82" width="6" height="6" fill="#d4a857"/>
<rect x="39" y="82" width="6" height="6" fill="#d4a857"/>
<rect x="45" y="82" width="6" height="6" fill="#d4a857"/>
<rect x="51" y="82" width="6" height="6" fill="#d4a857"/>
<rect x="57" y="82" width="6" height="6" fill="#d4a857"/>
<rect x="63" y="82" width="6" height="6" fill="#d4a857"/>
<rect x="69" y="82" width="6" height="6" fill="#d4a857"/>
<rect x="75" y="82" width="6" height="6" fill="#d4a857"/>
<rect x="81" y="82" width="6" height="6" fill="#b7a488"/>
<rect x="87" y="82" width="6" height="6" fill="#b7a488"/>
<rect x="15" y="88" width="6" height="6" fill="#b7a488"/>
<rect x="21" y="88" width="6" height="6" fill="#b7a488"/>
<rect x="27" y="88" width="6" height="6" fill="#b7a488"/>
<rect x="33" y="88" width="6" height="6" fill="#d4a857"/>
<rect x="39" y="88" width="6" height="6" fill="#d4a857"/>
<rect x="45" y="88" width="6" height="6" fill="#d4a857"/>
<rect x="51" y="88" width="6" height="6" fill="#d4a857"/>
<rect x="57" y="88" width="6" height="6" fill="#d4a857"/>
<rect x="63" y="88" width="6" height="6" fill="#d4a857"/>
<rect x="69" y="88" width="6" height="6" fill="#d4a857"/>
<rect x="75" y="88" width="6" height="6" fill="#b7a488"/>
<rect x="81" y="88" width="6" height="6" fill="#b7a488"/>
<rect x="87" y="88" width="6" height="6" fill="#b7a488"/>
<rect x="15" y="94" width="6" height="6" fill="#b7a488"/>
<rect x="21" y="94" width="6" height="6" fill="#b7a488"/>
<rect x="27" y="94" width="6" height="6" fill="#b7a488"/>
<rect x="33" y="94" width="6" height="6" fill="#b7a488"/>
<rect x="39" y="94" width="6" height="6" fill="#b7a488"/>
<rect x="45" y="94" width="6" height="6" fill="#b7a488"/>
<rect x="51" y="94" width="6" height="6" fill="#b7a488"/>
<rect x="57" y="94" width="6" height="6" fill="#b7a488"/>
<rect x="63" y="94" width="6" height="6" fill="#b7a488"/>
<rect x="69" y="94" width="6" height="6" fill="#b7a488"/>
<rect x="75" y="94" width="6" height="6" fill="#b7a488"/>
<rect x="81" y="94" width="6" height="6" fill="#b7a488"/>
<rect x="87" y="94" width="6" height="6" fill="#b7a488"/>
<rect x="15" y="100" width="6" height="6" fill="#b7a488"/>
<rect x="21" y="100" width="6" height="6" fill="#b7a488"/>
<rect x="27" y="100" width="6" height="6" fill="#b7a488"/>
<rect x="33" y="100" width="6" height="6" fill="#b7a488"/>
<rect x="39" y="100" width="6" height="6" fill="#b7a488"/>
<rect x="45" y="100" width="6" height="6" fill="#b7a488"/>
<rect x="51" y="100" width="6" height="6" fill="#b7a488"/>
<rect x="57" y="100" width="6" height="6" fill="#b7a488"/>
<rect x="63" y="100" width="6" height="6" fill="#b7a488"/>
<rect x="69" y="100" width="6" height="6" fill="#b7a488"/>
<rect x="75" y="100" width="6" height="6" fill="#b7a488"/>
<rect x="81" y="100" width="6" height="6" fill="#b7a488"/>
<rect x="87" y="100" width="6" height="6" fill="#b7a488"/>
<rect x="15" y="106" width="6" height="6" fill="#b7a488"/>
<rect x="21" y="106" width="6" height="6" fill="#b7a488"/>
<rect x="27" y="106" width="6" height="6" fill="#b7a488"/>
<rect x="33" y="106" width="6" height="6" fill="#b7a488"/>
<rect x="39" y="106" width="6" height="6" fill="#b7a488"/>
<rect x="45" y="106" width="6" height="6" fill="#b7a488"/>
<rect x="51" y="106" width="6" height="6" fill="#b7a488"/>
<rect x="57" y="106" width="6" height="6" fill="#b7a488"/>
<rect x="63" y="106" width="6" height="6" fill="#b7a488"/>
<rect x="69" y="106" width="6" height="6" fill="#b7a488"/>
<rect x="75" y="106" width="6" height="6" fill="#b7a488"/>
<rect x="81" y="106" width="6" height="6" fill="#96826a"/>
<rect x="87" y="106" width="6" height="6" fill="#b7a488"/>
<rect x="15" y="112" width="6" height="6" fill="#b7a488"/>
<rect x="21" y="112" width="6" height="6" fill="#b7a488"/>
<rect x="27" y="112" width="6" height="6" fill="#b7a488"/>
<rect x="33" y="112" width="6" height="6" fill="#b7a488"/>
<rect x="39" y="112" width="6" height="6" fill="#b7a488"/>
<rect x="45" y="112" width="6" height="6" fill="#b7a488"/>
<rect x="51" y="112" width="6" height="6" fill="#b7a488"/>
<rect x="57" y="112" width="6" height="6" fill="#b7a488"/>
<rect x="63" y="112" width="6" height="6" fill="#b7a488"/>
<rect x="69" y="112" width="6" height="6" fill="#96826a"/>
<rect x="75" y="112" width="6" height="6" fill="#96826a"/>
<rect x="81" y="112" width="6" height="6" fill="#b7a488"/>
<rect x="87" y="112" width="6" height="6" fill="#b7a488"/>
<rect x="15" y="118" width="6" height="6" fill="#b7a488"/>
<rect x="21" y="118" width="6" height="6" fill="#b7a488"/>
<rect x="27" y="118" width="6" height="6" fill="#b7a488"/>
<rect x="33" y="118" width="6" height="6" fill="#b7a488"/>
<rect x="39" y="118" width="6" height="6" fill="#b7a488"/>
<rect x="45" y="118" width="6" height="6" fill="#b7a488"/>
<rect x="51" y="118" width="6" height="6" fill="#b7a488"/>
<rect x="57" y="118" width="6" height="6" fill="#b7a488"/>
<rect x="63" y="118" width="6" height="6" fill="#b7a488"/>
<rect x="69" y="118" width="6" height="6" fill="#b7a488"/>
<rect x="75" y="118" width="6" height="6" fill="#b7a488"/>
<rect x="81" y="118" width="6" height="6" fill="#b7a488"/>
<rect x="87" y="118" width="6" height="6" fill="#b7a488"/>
<rect x="15" y="124" width="6" height="6" fill="#b7a488"/>
<rect x="21" y="124" width="6" height="6" fill="#b7a488"/>
<rect x="27" y="124" width="6" height="6" fill="#b7a488"/>
<rect x="33" y="124" width="6" height="6" fill="#b7a488"/>
<rect x="39" y="124" width="6" height="6" fill="#b7a488"/>
<rect x="45" y="124" width="6" height="6" fill="#b7a488"/>
<rect x="51" y="124" width="6" height="6" fill="#b7a488"/>
<rect x="57" y="124" width="6" height="6" fill="#b7a488"/>
<rect x="63" y="124" width="6" height="6" fill="#b7a488"/>
<rect x="69" y="124" width="6" height="6" fill="#b7a488"/>
<rect x="75" y="124" width="6" height="6" fill="#b7a488"/>
<rect x="81" y="124" width="6" height="6" fill="#96826a"/>
<rect x="87" y="124" width="6" height="6" fill="#b7a488"/>
<rect x="15" y="130" width="6" height="6" fill="#b7a488"/>
<rect x="21" y="130" width="6" height="6" fill="#b7a488"/>
<rect x="27" y="130" width="6" height="6" fill="#b7a488"/>
<rect x="33" y="130" width="6" height="6" fill="#b7a488"/>
<rect x="39" y="130" width="6" height="6" fill="#b7a488"/>
<rect x="45" y="130" width="6" height="6" fill="#b7a488"/>
<rect x="51" y="130" width="6" height="6" fill="#b7a488"/>
<rect x="57" y="130" width="6" height="6" fill="#b7a488"/>
<rect x="63" y="130" width="6" height="6" fill="#b7a488"/>
<rect x="69" y="130" width="6" height="6" fill="#96826a"/>
<rect x="75" y="130" width="6" height="6" fill="#96826a"/>
<rect x="81" y="130" width="6" height="6" fill="#b7a488"/>
<rect x="87" y="130" width="6" height="6" fill="#b7a488"/>
<rect x="15" y="136" width="6" height="6" fill="#b7a488"/>
<rect x="21" y="136" width="6" height="6" fill="#b7a488"/>
<rect x="27" y="136" width="6" height="6" fill="#b7a488"/>
<rect x="33" y="136" width="6" height="6" fill="#b7a488"/>
<rect x="39" y="136" width="6" height="6" fill="#b7a488"/>
<rect x="45" y="136" width="6" height="6" fill="#b7a488"/>
<rect x="51" y="136" width="6" height="6" fill="#b7a488"/>
<rect x="57" y="136" width="6" height="6" fill="#b7a488"/>
<rect x="63" y="136" width="6" height="6" fill="#b7a488"/>
<rect x="69" y="136" width="6" height="6" fill="#b7a488"/>
<rect x="75" y="136" width="6" height="6" fill="#b7a488"/>
<rect x="81" y="136" width="6" height="6" fill="#b7a488"/>
<rect x="87" y="136" width="6" height="6" fill="#b7a488"/>
<rect x="15" y="142" width="6" height="6" fill="#b7a488"/>
<rect x="21" y="142" width="6" height="6" fill="#b7a488"/>
<rect x="27" y="142" width="6" height="6" fill="#b7a488"/>
<rect x="33" y="142" width="6" height="6" fill="#b7a488"/>
<rect x="39" y="142" width="6" height="6" fill="#b7a488"/>
<rect x="45" y="142" width="6" height="6" fill="#b7a488"/>
<rect x="51" y="142" width="6" height="6" fill="#b7a488"/>
<rect x="57" y="142" width="6" height="6" fill="#b7a488"/>
<rect x="63" y="142" width="6" height="6" fill="#b7a488"/>
<rect x="69" y="142" width="6" height="6" fill="#b7a488"/>
<rect x="75" y="142" width="6" height="6" fill="#b7a488"/>
<rect x="81" y="142" width="6" height="6" fill="#96826a"/>
<rect x="87" y="142" width="6" height="6" fill="#b7a488"/>
<rect x="15" y="148" width="6" height="6" fill="#b7a488"/>
<rect x="21" y="148" width="6" height="6" fill="#b7a488"/>
<rect x="27" y="148" width="6" height="6" fill="#b7a488"/>
<rect x="33" y="148" width="6" height="6" fill="#b7a488"/>
<rect x="39" y="148" width="6" height="6" fill="#b7a488"/>
<rect x="45" y="148" width="6" height="6" fill="#b7a488"/>
<rect x="51" y="148" width="6" height="6" fill="#b7a488"/>
<rect x="57" y="148" width="6" height="6" fill="#b7a488"/>
<rect x="63" y="148" width="6" height="6" fill="#b7a488"/>
<rect x="69" y="148" width="6" height="6" fill="#96826a"/>
<rect x="75" y="148" width="6" height="6" fill="#96826a"/>
<rect x="81" y="148" width="6" height="6" fill="#b7a488"/>
<rect x="87" y="148" width="6" height="6" fill="#b7a488"/>
<rect x="15" y="154" width="6" height="6" fill="#b7a488"/>
<rect x="21" y="154" width="6" height="6" fill="#b7a488"/>
<rect x="27" y="154" width="6" height="6" fill="#b7a488"/>
<rect x="33" y="154" width="6" height="6" fill="#b7a488"/>
<rect x="39" y="154" width="6" height="6" fill="#b7a488"/>
<rect x="45" y="154" width="6" height="6" fill="#b7a488"/>
<rect x="51" y="154" width="6" height="6" fill="#b7a488"/>
<rect x="57" y="154" width="6" height="6" fill="#b7a488"/>
<rect x="63" y="154" width="6" height="6" fill="#b7a488"/>
<rect x="69" y="154" width="6" height="6" fill="#b7a488"/>
<rect x="75" y="154" width="6" height="6" fill="#b7a488"/>
<rect x="81" y="154" width="6" height="6" fill="#b7a488"/>
<rect x="87" y="154" width="6" height="6" fill="#b7a488"/>
<rect x="21" y="160" width="6" height="6" fill="#b7a488"/>
<rect x="27" y="160" width="6" height="6" fill="#b7a488"/>
<rect x="33" y="160" width="6" height="6" fill="#b7a488"/>
<rect x="39" y="160" width="6" height="6" fill="#b7a488"/>
<rect x="45" y="160" width="6" height="6" fill="#b7a488"/>
<rect x="51" y="160" width="6" height="6" fill="#b7a488"/>
<rect x="57" y="160" width="6" height="6" fill="#b7a488"/>
<rect x="63" y="160" width="6" height="6" fill="#b7a488"/>
<rect x="69" y="160" width="6" height="6" fill="#b7a488"/>
<rect x="75" y="160" width="6" height="6" fill="#b7a488"/>
<rect x="81" y="160" width="6" height="6" fill="#b7a488"/>
<rect x="33" y="166" width="6" height="6" fill="#b7a488"/>
<rect x="39" y="166" width="6" height="6" fill="#b7a488"/>
<rect x="45" y="166" width="6" height="6" fill="#b7a488"/>
<rect x="51" y="166" width="6" height="6" fill="#b7a488"/>
<rect x="57" y="166" width="6" height="6" fill="#b7a488"/>
<rect x="63" y="166" width="6" height="6" fill="#b7a488"/>
<rect x="69" y="166" width="6" height="6" fill="#b7a488"/>
<rect x="133" y="65" width="6" height="6" fill="#5c7e56"/>
<rect x="139" y="65" width="6" height="6" fill="#5c7e56"/>
<rect x="145" y="65" width="6" height="6" fill="#5c7e56"/>
<rect x="151" y="65" width="6" height="6" fill="#5c7e56"/>
<rect x="157" y="65" width="6" height="6" fill="#5c7e56"/>
<rect x="163" y="65" width="6" height="6" fill="#5c7e56"/>
<rect x="169" y="65" width="6" height="6" fill="#5c7e56"/>
<rect x="121" y="71" width="6" height="6" fill="#5c7e56"/>
<rect x="127" y="71" width="6" height="6" fill="#5c7e56"/>
<rect x="133" y="71" width="6" height="6" fill="#8aae7d"/>
<rect x="139" y="71" width="6" height="6" fill="#8aae7d"/>
<rect x="145" y="71" width="6" height="6" fill="#8aae7d"/>
<rect x="151" y="71" width="6" height="6" fill="#8aae7d"/>
<rect x="157" y="71" width="6" height="6" fill="#8aae7d"/>
<rect x="163" y="71" width="6" height="6" fill="#8aae7d"/>
<rect x="169" y="71" width="6" height="6" fill="#8aae7d"/>
<rect x="175" y="71" width="6" height="6" fill="#5c7e56"/>
<rect x="181" y="71" width="6" height="6" fill="#5c7e56"/>
<rect x="115" y="77" width="6" height="6" fill="#5c7e56"/>
<rect x="121" y="77" width="6" height="6" fill="#5c7e56"/>
<rect x="127" y="77" width="6" height="6" fill="#8aae7d"/>
<rect x="133" y="77" width="6" height="6" fill="#8aae7d"/>
<rect x="139" y="77" width="6" height="6" fill="#8aae7d"/>
<rect x="145" y="77" width="6" height="6" fill="#8aae7d"/>
<rect x="151" y="77" width="6" height="6" fill="#8aae7d"/>
<rect x="157" y="77" width="6" height="6" fill="#8aae7d"/>
<rect x="163" y="77" width="6" height="6" fill="#8aae7d"/>
<rect x="169" y="77" width="6" height="6" fill="#8aae7d"/>
<rect x="175" y="77" width="6" height="6" fill="#8aae7d"/>
<rect x="181" y="77" width="6" height="6" fill="#5c7e56"/>
<rect x="187" y="77" width="6" height="6" fill="#5c7e56"/>
<rect x="115" y="83" width="6" height="6" fill="#5c7e56"/>
<rect x="121" y="83" width="6" height="6" fill="#5c7e56"/>
<rect x="127" y="83" width="6" height="6" fill="#5c7e56"/>
<rect x="133" y="83" width="6" height="6" fill="#8aae7d"/>
<rect x="139" y="83" width="6" height="6" fill="#8aae7d"/>
<rect x="145" y="83" width="6" height="6" fill="#8aae7d"/>
<rect x="151" y="83" width="6" height="6" fill="#8aae7d"/>
<rect x="157" y="83" width="6" height="6" fill="#8aae7d"/>
<rect x="163" y="83" width="6" height="6" fill="#8aae7d"/>
<rect x="169" y="83" width="6" height="6" fill="#8aae7d"/>
<rect x="175" y="83" width="6" height="6" fill="#5c7e56"/>
<rect x="181" y="83" width="6" height="6" fill="#5c7e56"/>
<rect x="187" y="83" width="6" height="6" fill="#5c7e56"/>
<rect x="115" y="89" width="6" height="6" fill="#5c7e56"/>
<rect x="121" y="89" width="6" height="6" fill="#5c7e56"/>
<rect x="127" y="89" width="6" height="6" fill="#5c7e56"/>
<rect x="133" y="89" width="6" height="6" fill="#5c7e56"/>
<rect x="139" y="89" width="6" height="6" fill="#5c7e56"/>
<rect x="145" y="89" width="6" height="6" fill="#5c7e56"/>
<rect x="151" y="89" width="6" height="6" fill="#5c7e56"/>
<rect x="157" y="89" width="6" height="6" fill="#5c7e56"/>
<rect x="163" y="89" width="6" height="6" fill="#5c7e56"/>
<rect x="169" y="89" width="6" height="6" fill="#5c7e56"/>
<rect x="175" y="89" width="6" height="6" fill="#5c7e56"/>
<rect x="181" y="89" width="6" height="6" fill="#5c7e56"/>
<rect x="187" y="89" width="6" height="6" fill="#5c7e56"/>
<rect x="115" y="95" width="6" height="6" fill="#5c7e56"/>
<rect x="121" y="95" width="6" height="6" fill="#5c7e56"/>
<rect x="127" y="95" width="6" height="6" fill="#5c7e56"/>
<rect x="133" y="95" width="6" height="6" fill="#5c7e56"/>
<rect x="139" y="95" width="6" height="6" fill="#5c7e56"/>
<rect x="145" y="95" width="6" height="6" fill="#5c7e56"/>
<rect x="151" y="95" width="6" height="6" fill="#5c7e56"/>
<rect x="157" y="95" width="6" height="6" fill="#5c7e56"/>
<rect x="163" y="95" width="6" height="6" fill="#5c7e56"/>
<rect x="169" y="95" width="6" height="6" fill="#5c7e56"/>
<rect x="175" y="95" width="6" height="6" fill="#5c7e56"/>
<rect x="181" y="95" width="6" height="6" fill="#5c7e56"/>
<rect x="187" y="95" width="6" height="6" fill="#5c7e56"/>
<rect x="115" y="101" width="6" height="6" fill="#5c7e56"/>
<rect x="121" y="101" width="6" height="6" fill="#5c7e56"/>
<rect x="127" y="101" width="6" height="6" fill="#5c7e56"/>
<rect x="133" y="101" width="6" height="6" fill="#5c7e56"/>
<rect x="139" y="101" width="6" height="6" fill="#5c7e56"/>
<rect x="145" y="101" width="6" height="6" fill="#5c7e56"/>
<rect x="151" y="101" width="6" height="6" fill="#5c7e56"/>
<rect x="157" y="101" width="6" height="6" fill="#5c7e56"/>
<rect x="163" y="101" width="6" height="6" fill="#5c7e56"/>
<rect x="169" y="101" width="6" height="6" fill="#5c7e56"/>
<rect x="175" y="101" width="6" height="6" fill="#5c7e56"/>
<rect x="181" y="101" width="6" height="6" fill="#48633f"/>
<rect x="187" y="101" width="6" height="6" fill="#5c7e56"/>
<rect x="115" y="107" width="6" height="6" fill="#5c7e56"/>
<rect x="121" y="107" width="6" height="6" fill="#5c7e56"/>
<rect x="127" y="107" width="6" height="6" fill="#5c7e56"/>
<rect x="133" y="107" width="6" height="6" fill="#5c7e56"/>
<rect x="139" y="107" width="6" height="6" fill="#5c7e56"/>
<rect x="145" y="107" width="6" height="6" fill="#5c7e56"/>
<rect x="151" y="107" width="6" height="6" fill="#5c7e56"/>
<rect x="157" y="107" width="6" height="6" fill="#5c7e56"/>
<rect x="163" y="107" width="6" height="6" fill="#5c7e56"/>
<rect x="169" y="107" width="6" height="6" fill="#48633f"/>
<rect x="175" y="107" width="6" height="6" fill="#48633f"/>
<rect x="181" y="107" width="6" height="6" fill="#5c7e56"/>
<rect x="187" y="107" width="6" height="6" fill="#5c7e56"/>
<rect x="115" y="113" width="6" height="6" fill="#5c7e56"/>
<rect x="121" y="113" width="6" height="6" fill="#5c7e56"/>
<rect x="127" y="113" width="6" height="6" fill="#5c7e56"/>
<rect x="133" y="113" width="6" height="6" fill="#5c7e56"/>
<rect x="139" y="113" width="6" height="6" fill="#5c7e56"/>
<rect x="145" y="113" width="6" height="6" fill="#5c7e56"/>
<rect x="151" y="113" width="6" height="6" fill="#5c7e56"/>
<rect x="157" y="113" width="6" height="6" fill="#5c7e56"/>
<rect x="163" y="113" width="6" height="6" fill="#5c7e56"/>
<rect x="169" y="113" width="6" height="6" fill="#5c7e56"/>
<rect x="175" y="113" width="6" height="6" fill="#5c7e56"/>
<rect x="181" y="113" width="6" height="6" fill="#5c7e56"/>
<rect x="187" y="113" width="6" height="6" fill="#5c7e56"/>
<rect x="115" y="119" width="6" height="6" fill="#5c7e56"/>
<rect x="121" y="119" width="6" height="6" fill="#5c7e56"/>
<rect x="127" y="119" width="6" height="6" fill="#5c7e56"/>
<rect x="133" y="119" width="6" height="6" fill="#5c7e56"/>
<rect x="139" y="119" width="6" height="6" fill="#5c7e56"/>
<rect x="145" y="119" width="6" height="6" fill="#5c7e56"/>
<rect x="151" y="119" width="6" height="6" fill="#5c7e56"/>
<rect x="157" y="119" width="6" height="6" fill="#5c7e56"/>
<rect x="163" y="119" width="6" height="6" fill="#5c7e56"/>
<rect x="169" y="119" width="6" height="6" fill="#5c7e56"/>
<rect x="175" y="119" width="6" height="6" fill="#5c7e56"/>
<rect x="181" y="119" width="6" height="6" fill="#48633f"/>
<rect x="187" y="119" width="6" height="6" fill="#5c7e56"/>
<rect x="115" y="125" width="6" height="6" fill="#5c7e56"/>
<rect x="121" y="125" width="6" height="6" fill="#5c7e56"/>
<rect x="127" y="125" width="6" height="6" fill="#5c7e56"/>
<rect x="133" y="125" width="6" height="6" fill="#5c7e56"/>
<rect x="139" y="125" width="6" height="6" fill="#5c7e56"/>
<rect x="145" y="125" width="6" height="6" fill="#5c7e56"/>
<rect x="151" y="125" width="6" height="6" fill="#5c7e56"/>
<rect x="157" y="125" width="6" height="6" fill="#5c7e56"/>
<rect x="163" y="125" width="6" height="6" fill="#5c7e56"/>
<rect x="169" y="125" width="6" height="6" fill="#48633f"/>
<rect x="175" y="125" width="6" height="6" fill="#48633f"/>
<rect x="181" y="125" width="6" height="6" fill="#5c7e56"/>
<rect x="187" y="125" width="6" height="6" fill="#5c7e56"/>
<rect x="115" y="131" width="6" height="6" fill="#5c7e56"/>
<rect x="121" y="131" width="6" height="6" fill="#5c7e56"/>
<rect x="127" y="131" width="6" height="6" fill="#5c7e56"/>
<rect x="133" y="131" width="6" height="6" fill="#5c7e56"/>
<rect x="139" y="131" width="6" height="6" fill="#5c7e56"/>
<rect x="145" y="131" width="6" height="6" fill="#5c7e56"/>
<rect x="151" y="131" width="6" height="6" fill="#5c7e56"/>
<rect x="157" y="131" width="6" height="6" fill="#5c7e56"/>
<rect x="163" y="131" width="6" height="6" fill="#5c7e56"/>
<rect x="169" y="131" width="6" height="6" fill="#5c7e56"/>
<rect x="175" y="131" width="6" height="6" fill="#5c7e56"/>
<rect x="181" y="131" width="6" height="6" fill="#5c7e56"/>
<rect x="187" y="131" width="6" height="6" fill="#5c7e56"/>
<rect x="115" y="137" width="6" height="6" fill="#5c7e56"/>
<rect x="121" y="137" width="6" height="6" fill="#5c7e56"/>
<rect x="127" y="137" width="6" height="6" fill="#5c7e56"/>
<rect x="133" y="137" width="6" height="6" fill="#5c7e56"/>
<rect x="139" y="137" width="6" height="6" fill="#5c7e56"/>
<rect x="145" y="137" width="6" height="6" fill="#5c7e56"/>
<rect x="151" y="137" width="6" height="6" fill="#5c7e56"/>
<rect x="157" y="137" width="6" height="6" fill="#5c7e56"/>
<rect x="163" y="137" width="6" height="6" fill="#5c7e56"/>
<rect x="169" y="137" width="6" height="6" fill="#5c7e56"/>
<rect x="175" y="137" width="6" height="6" fill="#5c7e56"/>
<rect x="181" y="137" width="6" height="6" fill="#48633f"/>
<rect x="187" y="137" width="6" height="6" fill="#5c7e56"/>
<rect x="115" y="143" width="6" height="6" fill="#5c7e56"/>
<rect x="121" y="143" width="6" height="6" fill="#5c7e56"/>
<rect x="127" y="143" width="6" height="6" fill="#5c7e56"/>
<rect x="133" y="143" width="6" height="6" fill="#5c7e56"/>
<rect x="139" y="143" width="6" height="6" fill="#5c7e56"/>
<rect x="145" y="143" width="6" height="6" fill="#5c7e56"/>
<rect x="151" y="143" width="6" height="6" fill="#5c7e56"/>
<rect x="157" y="143" width="6" height="6" fill="#5c7e56"/>
<rect x="163" y="143" width="6" height="6" fill="#5c7e56"/>
<rect x="169" y="143" width="6" height="6" fill="#48633f"/>
<rect x="175" y="143" width="6" height="6" fill="#48633f"/>
<rect x="181" y="143" width="6" height="6" fill="#5c7e56"/>
<rect x="187" y="143" width="6" height="6" fill="#5c7e56"/>
<rect x="115" y="149" width="6" height="6" fill="#5c7e56"/>
<rect x="121" y="149" width="6" height="6" fill="#5c7e56"/>
<rect x="127" y="149" width="6" height="6" fill="#5c7e56"/>
<rect x="133" y="149" width="6" height="6" fill="#5c7e56"/>
<rect x="139" y="149" width="6" height="6" fill="#5c7e56"/>
<rect x="145" y="149" width="6" height="6" fill="#5c7e56"/>
<rect x="151" y="149" width="6" height="6" fill="#5c7e56"/>
<rect x="157" y="149" width="6" height="6" fill="#5c7e56"/>
<rect x="163" y="149" width="6" height="6" fill="#5c7e56"/>
<rect x="169" y="149" width="6" height="6" fill="#5c7e56"/>
<rect x="175" y="149" width="6" height="6" fill="#5c7e56"/>
<rect x="181" y="149" width="6" height="6" fill="#5c7e56"/>
<rect x="187" y="149" width="6" height="6" fill="#5c7e56"/>
<rect x="121" y="155" width="6" height="6" fill="#5c7e56"/>
<rect x="127" y="155" width="6" height="6" fill="#5c7e56"/>
<rect x="133" y="155" width="6" height="6" fill="#5c7e56"/>
<rect x="139" y="155" width="6" height="6" fill="#5c7e56"/>
<rect x="145" y="155" width="6" height="6" fill="#5c7e56"/>
<rect x="151" y="155" width="6" height="6" fill="#5c7e56"/>
<rect x="157" y="155" width="6" height="6" fill="#5c7e56"/>
<rect x="163" y="155" width="6" height="6" fill="#5c7e56"/>
<rect x="169" y="155" width="6" height="6" fill="#5c7e56"/>
<rect x="175" y="155" width="6" height="6" fill="#5c7e56"/>
<rect x="181" y="155" width="6" height="6" fill="#5c7e56"/>
<rect x="133" y="161" width="6" height="6" fill="#5c7e56"/>
<rect x="139" y="161" width="6" height="6" fill="#5c7e56"/>
<rect x="145" y="161" width="6" height="6" fill="#5c7e56"/>
<rect x="151" y="161" width="6" height="6" fill="#5c7e56"/>
<rect x="157" y="161" width="6" height="6" fill="#5c7e56"/>
<rect x="163" y="161" width="6" height="6" fill="#5c7e56"/>
<rect x="169" y="161" width="6" height="6" fill="#5c7e56"/>
<line x1="84" y1="121" x2="112" y2="116" stroke="#d4a857" stroke-width="4"/>
<polygon points="84,121 98,114 98,128" fill="#d4a857"/>
</svg>
